<svg xmlns="http://www.w3.org/2000/svg" xmlns:xlink="http://www.w3.org/1999/xlink" width="293" height="200" viewBox="0 0 293 200">
    <defs>
        <path id="a" d="M0 0h21v21H0z"/>
        <path id="b" d="M1 0H0v8h2V2h6V0H1z"/>
        <path id="c" d="M6 5H5v8h2V7h6V5H6z"/>
        <path id="d" d="M-.418 5.73h14v2h-14z"/>
        <rect id="e" width="30" height="30" rx="2"/>
        <rect id="f" width="30" height="30" rx="2"/>
        <rect id="g" width="30" height="30" rx="2"/>
    </defs>
    <g fill="none" fill-rule="evenodd">
        <path stroke="#FFF" stroke-opacity=".01" d="M.5.5v199h294V.5H.5z"/>
        <g fill-rule="nonzero">
            <path fill="#FFF" d="M78.644 62.603h-3.043a.171.171 0 0 1-.17-.167v-7.88c0-.09.078-.168.17-.168h3.04c.09 0 .168.077.168.167v7.881a.165.165 0 0 1-.165.167z"/>
            <path fill="#979797" d="M90.061 61.098l.915-5.753c.004-.022.004-.039.004-.06 0-1.21-.992-2.193-2.215-2.193h-3.439v-2.45c0-1.033-.303-1.775-.906-2.213-.954-.69-2.263-.296-2.32-.279a.387.387 0 0 0-.273.37v2.75c0 2.17-2.54 2.908-2.65 2.938a.362.362 0 0 0-.134.068.735.735 0 0 0-.572-.274h-2.697a.73.73 0 0 0-.733.725v7.542c0 .399.33.725.733.725h2.697a.736.736 0 0 0 .633-.36c.399.377.937.604 1.526.604h6.8c1.504-.004 2.462-.78 2.631-2.14zM78.42 62.213h-2.593v-7.439h2.593v7.44zm.785-1.167V54.96c.06.012.121.012.186-.005.13-.034 3.222-.922 3.222-3.685v-2.437c.338-.051.924-.081 1.344.223.39.284.585.815.585 1.588v2.844c0 .215.178.39.395.39h3.833a1.42 1.42 0 0 1 1.427 1.386l-.91 5.727v.013c-.122.97-.742 1.459-1.852 1.459h-6.8a1.43 1.43 0 0 1-1.43-1.416z"/>
        </g>
        <path fill="#000" d="M24.502 23h-.794l-.276-.274A6.47 6.47 0 0 0 25 18.5a6.5 6.5 0 1 0-6.5 6.5 6.47 6.47 0 0 0 4.225-1.566l.276.274v.792l4.998 4.991L29.49 28l-4.988-5zM18.5 23a4.5 4.5 0 1 1 0-9 4.5 4.5 0 0 1 0 9z" opacity=".501"/>
        <path d="M72 71h24v24H72z"/>
        <path fill="#FFF" fill-rule="nonzero" d="M92 82H79.83l5.59-5.59L84 75l-8 8 8 8 1.41-1.41L79.83 84H92z"/>
        <path fill="#FFF" d="M189.586 23.243l-4.95-4.95-2.121 2.121 5.303 5.304 1.768 1.767 9.9-9.9-2.122-2.12-7.778 7.778z"/>
        <path fill="#CECECE" d="M64 129.046L54.73 134l1.77-10.492-7.5-7.431 10.365-1.53L64 105l4.635 9.546L79 116.077l-7.5 7.43L73.27 134z"/>
        <path fill="#EBEBEB" d="M157.938 55.571c0 .233-.09.438-.268.617L145.188 68.67a.847.847 0 0 1-.617.267.847.847 0 0 1-.616-.267l-1.339-1.34a.847.847 0 0 1-.268-.616c0-.232.09-.437.268-.616l10.527-10.527-10.527-10.526a.847.847 0 0 1-.268-.616c0-.233.09-.438.268-.617l1.34-1.339a.847.847 0 0 1 .615-.268c.233 0 .438.09.617.268l12.482 12.482a.847.847 0 0 1 .268.616z"/>
        <path fill="#C8C8C8" d="M183 53.879l-5.303-5.304-2.122 2.122L180.88 56l-5.304 5.303 2.122 2.122L183 58.12l5.303 5.304 2.122-2.122L185.12 56l5.304-5.303-2.122-2.122L183 53.88z"/>
        <path fill="#545454" fill-rule="nonzero" d="M219.99 46c-5.52 0-9.99 4.48-9.99 10s4.47 10 9.99 10c5.53 0 10.01-4.48 10.01-10s-4.48-10-10.01-10zm.01 18c-4.42 0-8-3.58-8-8s3.58-8 8-8 8 3.58 8 8-3.58 8-8 8z"/>
        <path d="M208 44h24v24h-24z"/>
        <path fill="#545454" fill-rule="nonzero" d="M220.5 51H219v6l5.25 3.15.75-1.23-4.5-2.67z"/>
        <path fill="#EBEBEB" d="M127.795 44.429c0 .232-.09.437-.268.616L117 55.57l10.527 10.527a.847.847 0 0 1 .268.616c0 .232-.09.438-.268.616l-1.34 1.34a.847.847 0 0 1-.616.267.847.847 0 0 1-.616-.267l-12.482-12.483a.847.847 0 0 1-.268-.616c0-.232.09-.437.268-.616l12.482-12.482a.847.847 0 0 1 .616-.268c.233 0 .438.09.617.268l1.339 1.34a.847.847 0 0 1 .268.616z"/>
        <path d="M109 9h18.75v18.462H109z"/>
        <path fill="#34A105" fill-rule="nonzero" d="M125.727 18.523l-7.032-6.923a1.565 1.565 0 0 0-1.101-.446h-5.469c-.86 0-1.563.692-1.563 1.538v5.385c0 .423.172.808.461 1.092l7.032 6.923c.28.277.672.446 1.101.446.43 0 .82-.169 1.102-.453l5.469-5.385c.289-.277.46-.662.46-1.085 0-.423-.18-.815-.46-1.092zM113.297 15a1.161 1.161 0 0 1-1.172-1.154c0-.638.523-1.154 1.172-1.154.648 0 1.172.516 1.172 1.154 0 .639-.524 1.154-1.172 1.154z"/>
        <path fill="#9B9B9B" d="M88.991 11.286c.171 0 .335.033.491.1.246.097.441.25.586.458.145.208.218.439.218.692v14.386c0 .253-.073.484-.218.692-.145.208-.34.36-.586.457-.141.06-.305.09-.49.09-.358 0-.667-.12-.927-.357l-4.922-4.733-4.922 4.733a1.33 1.33 0 0 1-.926.368c-.171 0-.335-.034-.491-.1a1.258 1.258 0 0 1-.586-.458 1.184 1.184 0 0 1-.218-.692V12.536c0-.253.073-.484.218-.692.145-.209.34-.361.586-.458.156-.067.32-.1.49-.1h11.697z"/>
        <g transform="translate(142 10)">
            <use fill="#FFF" xlink:href="#a"/>
            <path stroke="#CBCBCB" d="M.5.5h20v20H.5z"/>
        </g>
        <g transform="rotate(-90 86.5 -59.5)">
            <use fill="#D8D8D8" xlink:href="#b"/>
            <path stroke="#979797" d="M.5.5v7h1v-6h6v-1h-7z"/>
        </g>
        <g transform="rotate(90 77.5 86.5)">
            <use fill="#D8D8D8" xlink:href="#c"/>
            <path stroke="#979797" d="M5.5 5.5v7h1v-6h6v-1h-7z"/>
        </g>
        <g transform="rotate(-44 96.596 -167.29)">
            <use fill="#D8D8D8" xlink:href="#d"/>
            <path stroke="#979797" d="M.082 6.23h13v1h-13z"/>
        </g>
        <path fill="#6AC259" d="M223 14a7 7 0 1 0 0 14 7 7 0 0 0 0-14zm-1.284 10.596l-3.082-3.082 1.027-1.028 2.055 2.055 4.623-4.623 1.027 1.027-5.65 5.65z"/>
        <path fill="#999" fill-rule="nonzero" d="M227.333 93.684l-5.85-2.906a1.982 1.982 0 0 0-.868-.22c-.736-.001-1.479.551-1.479 1.787v5.43c0 1.237.751 1.79 1.496 1.79.279 0 .572-.075.877-.224l5.782-2.902c.652-.32 1.026-.828 1.026-1.397 0-.556-.36-1.052-.984-1.358zm-6.7 5.104l-.002-.775h.001v.775zm.192-.838a.78.78 0 0 1-.12.048.957.957 0 0 1-.023-.222v-5.43c0-.097.01-.168.02-.218.026.01.06.022.099.043l5.798 2.88-5.774 2.899zm16.857-14.914h-29.364A2.326 2.326 0 0 0 206 85.363v18.62a2.326 2.326 0 0 0 2.318 2.327h11.591v3.103h-3.09v1.551h12.363v-1.551h-3.091v-3.103h11.59a2.326 2.326 0 0 0 2.319-2.328v-18.62a2.326 2.326 0 0 0-2.318-2.326zm-13.137 26.377h-3.09v-3.103h3.09v3.103zm13.91-5.43a.775.775 0 0 1-.773.775h-29.364a.775.775 0 0 1-.773-.776v-18.62c0-.427.347-.775.773-.775h29.364c.426 0 .773.348.773.776v18.62z"/>
        <g transform="translate(127 81)">
            <use fill="#FFF" xlink:href="#e"/>
            <rect width="29" height="29" x=".5" y=".5" stroke="#EBEBEB" rx="2"/>
        </g>
        <path fill="#666" d="M132 86h8.333v8.333H132zM132 97.667h8.333V106H132zM143.667 86H152v8.333h-8.333zM143.667 97.667H152V106h-8.333z"/>
        <g>
            <g transform="translate(158 81)">
                <use fill="#FFF" xlink:href="#f"/>
                <rect width="29" height="29" x=".5" y=".5" stroke="#EBEBEB" rx="2"/>
            </g>
            <path fill="#666" d="M163 86.833h20V91h-20zM163 94.333h20V98.5h-20zM163 101.833h20V106h-20z"/>
        </g>
        <g fill="#000" opacity=".4">
            <g fill-rule="nonzero">
                <path d="M255 85h2v23h-2zM286 85h2v23h-2zM289 88h2v18h-2zM252 88h2v18h-2zM258 83v27h27V83h-27zm25 25.364h-23V84.636h23v23.728z"/>
            </g>
        </g>
        <path fill="#9B9B9B" d="M63 18c0 .193-.07.36-.212.502l-5.714 5.715a.686.686 0 0 1-.503.212.686.686 0 0 1-.502-.212.686.686 0 0 1-.212-.503v-2.857h-2.5c-.729 0-1.382.022-1.959.067-.576.045-1.15.125-1.718.24a6.388 6.388 0 0 0-1.485.474c-.42.201-.813.46-1.177.776a3.886 3.886 0 0 0-.893 1.127c-.23.436-.411.95-.541 1.546a9.493 9.493 0 0 0-.196 2.02c0 .41.019.867.056 1.373 0 .045.01.132.028.262.019.13.028.229.028.296a.416.416 0 0 1-.095.279.326.326 0 0 1-.262.112c-.12 0-.223-.064-.313-.19a1.258 1.258 0 0 1-.145-.246 21.983 21.983 0 0 1-.268-.602C43.472 26.27 43 24.592 43 23.357c0-1.48.197-2.72.592-3.716 1.205-2.999 4.46-4.498 9.765-4.498h2.5v-2.857c0-.194.07-.361.212-.503a.686.686 0 0 1 .502-.212c.194 0 .361.071.503.212l5.714 5.715A.686.686 0 0 1 63 18z"/>
        <g>
            <g transform="translate(10 155)">
                <use fill="#FFF" xlink:href="#g"/>
                <rect width="29" height="29" x=".5" y=".5" stroke="#EBEBEB" rx="2"/>
            </g>
            <path fill="#666" fill-rule="nonzero" d="M22 161l-4 3.99h3V172h2v-7.01h3L22 161zm7 14.01V168h-2v7.01h-3l4 3.99 4-3.99h-3z"/>
            <path d="M14 158h24v24H14z"/>
        </g>
        <path fill="#F5A623" d="M25 129.046L15.73 134l1.77-10.492-7.5-7.431 10.365-1.53L25 105l4.635 9.546L40 116.077l-7.5 7.43L34.27 134z"/>
        <path fill="#CECECE" d="M49 86.096L43.438 89l1.062-6.15-4.5-4.357 6.219-.897L49 72l2.781 5.596 6.219.897-4.5 4.356L54.562 89zM98.5 115.95L94.483 118l.767-4.342-3.25-3.074 4.491-.634L98.5 106l2.009 3.95 4.491.634-3.25 3.074.767 4.342z"/>
        <path fill="#F5A623" d="M23 86.096L17.438 89l1.062-6.15-4.5-4.357 6.219-.897L23 72l2.781 5.596 6.219.897-4.5 4.356L28.562 89z"/>
        <path fill="#CECECE" d="M45 61.438L40.056 64 41 58.573l-4-3.844 5.528-.791L45 49l2.472 4.938 5.528.791-4 3.844.944 5.427z"/>
        <path fill="#F5A623" d="M22 61.438L17.056 64 18 58.573l-4-3.844 5.528-.791L22 49l2.472 4.938 5.528.791-4 3.844.944 5.427z"/>
    </g>
</svg>
